<svg id="Layer_1" data-name="Layer 1" xmlns="http://www.w3.org/2000/svg" viewBox="0 0 36.83 37.95"><defs><style>.cls-1,.cls-4,.cls-5{fill:#fff;}.cls-2{fill:#6ac6dc;}.cls-3,.cls-4,.cls-5{isolation:isolate;}.cls-4,.cls-5{font-size:13.97px;font-family:BahnschriftCorrect-Regular, Bahnschrift Correct;}.cls-5{letter-spacing:-0.01em;}</style></defs><polygon class="cls-1" points="19.74 17.23 12.14 3.99 14.57 0 18.47 6.8 22.49 0 32.35 17.23 27.73 17.23 21.63 7.01 19.97 9.68 24.28 17.23 19.74 17.23"/><polygon class="cls-2" points="16.47 17.23 4.5 17.23 10.56 6.89 16.47 17.23"/><g class="cls-3"><text class="cls-4" transform="translate(0 30.38)">Mal</text><text class="cls-5" transform="translate(22.37 30.38)">o</text><text class="cls-4" transform="translate(29.85 30.38)">v</text></g><g class="cls-3"><path class="cls-1" d="M5.67,36.77V32.91H7.2a2.28,2.28,0,0,1,1.07.25,1.82,1.82,0,0,1,.72.68,2,2,0,0,1,.26,1,1.93,1.93,0,0,1-.26,1,1.75,1.75,0,0,1-.72.68,2.17,2.17,0,0,1-1.07.25ZM6,36.52H7.18a2,2,0,0,0,.94-.22,1.56,1.56,0,0,0,.63-.59,1.83,1.83,0,0,0,0-1.74,1.56,1.56,0,0,0-.63-.59,2,2,0,0,0-.94-.21H6Z" transform="translate(-1.42 0.09)"/><path class="cls-1" d="M10.27,33.19a.22.22,0,1,1,0-.44.25.25,0,0,1,.17.06.23.23,0,0,1,.06.16.25.25,0,0,1-.06.16A.25.25,0,0,1,10.27,33.19Zm-.13,3.58V33.89h.27v2.88Z" transform="translate(-1.42 0.09)"/><path class="cls-1" d="M12.69,36.67a1.49,1.49,0,0,1-.73-.18,1.44,1.44,0,0,1-.51-.5,1.48,1.48,0,0,1,0-1.45,1.41,1.41,0,0,1,.51-.49,1.49,1.49,0,0,1,.73-.18,1.45,1.45,0,0,1,.7.17,1.22,1.22,0,0,1,.5.48,1.63,1.63,0,0,1,0,1.49,1.22,1.22,0,0,1-.5.48A1.35,1.35,0,0,1,12.69,36.67Zm.08,1.19a2.36,2.36,0,0,1-.75-.12,1.47,1.47,0,0,1-.57-.34l.15-.21a1.36,1.36,0,0,0,.52.31,1.69,1.69,0,0,0,.64.11,1.16,1.16,0,0,0,.85-.27,1.12,1.12,0,0,0,.28-.85V35.7l0-.43,0-.43v-1h.26v2.57a1.38,1.38,0,0,1-.35,1.06A1.42,1.42,0,0,1,12.77,37.86Zm-.06-1.44a1.24,1.24,0,0,0,.62-.15,1.08,1.08,0,0,0,.41-.41,1.26,1.26,0,0,0,0-1.19,1.08,1.08,0,0,0-.41-.41,1.35,1.35,0,0,0-.62-.14,1.33,1.33,0,0,0-.6.14,1,1,0,0,0-.42.41,1.26,1.26,0,0,0,0,1.19,1,1,0,0,0,.42.41A1.21,1.21,0,0,0,12.71,36.42Z" transform="translate(-1.42 0.09)"/><path class="cls-1" d="M15.47,33.19a.23.23,0,0,1-.16-.06.22.22,0,0,1,0-.32.23.23,0,0,1,.16-.06.21.21,0,0,1,.16.06.23.23,0,0,1,.06.16.25.25,0,0,1-.06.16A.21.21,0,0,1,15.47,33.19Zm-.14,3.58V33.89h.28v2.88Z" transform="translate(-1.42 0.09)"/><path class="cls-1" d="M16.3,34.13v-.24H18v.24Zm1.31,2.66a.75.75,0,0,1-.58-.21.77.77,0,0,1-.21-.57V33.27h.28V36a.62.62,0,0,0,.14.43.49.49,0,0,0,.39.14.64.64,0,0,0,.45-.16l.12.2a.72.72,0,0,1-.27.15A.89.89,0,0,1,17.61,36.79Z" transform="translate(-1.42 0.09)"/><path class="cls-1" d="M19.74,36.79a1.32,1.32,0,0,1-.55-.1.75.75,0,0,1-.36-.29A.71.71,0,0,1,18.7,36a.77.77,0,0,1,.11-.4.68.68,0,0,1,.33-.29,1.44,1.44,0,0,1,.64-.11h1.06v.21H19.78a.92.92,0,0,0-.62.17A.52.52,0,0,0,19,36a.54.54,0,0,0,.21.44.92.92,0,0,0,.59.17,1.09,1.09,0,0,0,.61-.17,1,1,0,0,0,.37-.48l.08.19a1.07,1.07,0,0,1-.39.5A1.29,1.29,0,0,1,19.74,36.79Zm1,0V34.93a.84.84,0,0,0-.21-.61.9.9,0,0,0-.64-.21,1.42,1.42,0,0,0-.55.11,1.28,1.28,0,0,0-.44.26l-.14-.2a1.48,1.48,0,0,1,.52-.3,1.9,1.9,0,0,1,.63-.11,1.14,1.14,0,0,1,.82.27A1.07,1.07,0,0,1,21,35v1.82Z" transform="translate(-1.42 0.09)"/><path class="cls-1" d="M22.17,36.77V32.68h.28v4.09Z" transform="translate(-1.42 0.09)"/><path class="cls-1" d="M25.12,36.77V32.91h.28v3.61h2.22v.25Z" transform="translate(-1.42 0.09)"/><path class="cls-1" d="M29,36.79a1.4,1.4,0,0,1-.56-.1.77.77,0,0,1-.35-.29A.71.71,0,0,1,28,36a.88.88,0,0,1,.1-.4.76.76,0,0,1,.34-.29,1.44,1.44,0,0,1,.64-.11h1.05v.21H29.07a.92.92,0,0,0-.62.17.52.52,0,0,0-.18.41.54.54,0,0,0,.21.44.92.92,0,0,0,.59.17,1.09,1.09,0,0,0,.61-.17,1,1,0,0,0,.37-.48l.08.19a1.07,1.07,0,0,1-.39.5A1.31,1.31,0,0,1,29,36.79Zm1,0V34.93a.84.84,0,0,0-.21-.61.9.9,0,0,0-.64-.21,1.42,1.42,0,0,0-.55.11,1.2,1.2,0,0,0-.44.26l-.14-.2a1.48,1.48,0,0,1,.52-.3,1.9,1.9,0,0,1,.63-.11,1.14,1.14,0,0,1,.82.27,1.07,1.07,0,0,1,.29.81v1.82Z" transform="translate(-1.42 0.09)"/><path class="cls-1" d="M31.46,36.77V32.68h.28v2.14l-.06.51.05.5v.94Zm1.45,0a1.44,1.44,0,0,1-.69-.17,1.31,1.31,0,0,1-.48-.51,1.78,1.78,0,0,1,0-1.56,1.28,1.28,0,0,1,.48-.5,1.34,1.34,0,0,1,.69-.18,1.4,1.4,0,0,1,.73.19,1.29,1.29,0,0,1,.5.51,1.62,1.62,0,0,1,0,1.52,1.39,1.39,0,0,1-.5.52A1.49,1.49,0,0,1,32.91,36.79Zm0-.25a1.21,1.21,0,0,0,.6-.15A1.1,1.1,0,0,0,33.9,36a1.34,1.34,0,0,0,.15-.64,1.28,1.28,0,0,0-.15-.63,1.06,1.06,0,0,0-.41-.43,1.21,1.21,0,0,0-.6-.15,1.15,1.15,0,0,0-.59.15,1.09,1.09,0,0,0-.42.43,1.28,1.28,0,0,0-.15.63,1.34,1.34,0,0,0,.15.64,1.13,1.13,0,0,0,.42.42A1.15,1.15,0,0,0,32.89,36.54Z" transform="translate(-1.42 0.09)"/></g></svg>